<!DOCTYPE svg PUBLIC "-//W3C//DTD SVG 1.1//EN" "http://www.w3.org/Graphics/SVG/1.1/DTD/svg11.dtd">
<!-- Uploaded to: SVG Repo, www.svgrepo.com, Transformed by: SVG Repo Mixer Tools -->
<svg version="1.1" id="Layer_1" xmlns="http://www.w3.org/2000/svg" xmlns:xlink="http://www.w3.org/1999/xlink" viewBox="0 0 512 512" xml:space="preserve" width="800px" height="800px" fill="#000000">
<g id="SVGRepo_bgCarrier" stroke-width="0"/>
<g id="SVGRepo_tracerCarrier" stroke-linecap="round" stroke-linejoin="round"/>
<g id="SVGRepo_iconCarrier"> <g> <rect x="102.681" y="245.681" style="fill:#2F5E88;" width="16.879" height="208.648"/> <rect x="247.56" y="194.11" style="fill:#2F5E88;" width="16.879" height="260.22"/> <rect x="392.44" y="245.681" style="fill:#2F5E88;" width="16.879" height="208.648"/> <rect x="319.994" y="254.121" style="fill:#2F5E88;" width="16.879" height="90.258"/> <rect x="175.115" y="254.121" style="fill:#2F5E88;" width="16.879" height="90.258"/> <path style="fill:#2F5E88;" d="M481.758,352.819h-16.879v-90.255H47.121v90.255H30.242v-98.694c0-4.661,3.779-8.44,8.44-8.44 h434.637c4.662,0,8.44,3.779,8.44,8.44V352.819z"/> <rect x="309.451" y="22.505" style="fill:#2F5E88;" width="56.264" height="157.538"/> </g> <rect x="146.286" y="22.505" style="fill:#367596;" width="185.67" height="157.538"/> <polygon style="fill:#88ACB5;" points="343.209,157.538 320.703,180.044 343.209,202.549 376.967,202.549 376.967,157.538 "/> <rect x="135.033" y="157.538" style="fill:#A7CBCF;" width="208.176" height="45.011"/> <polygon style="fill:#88ACB5;" points="343.209,0 320.703,22.505 343.209,45.011 376.967,45.011 376.967,0 "/> <rect x="135.033" style="fill:#A7CBCF;" width="208.176" height="45.011"/> <polygon style="fill:#88ACB5;" points="343.209,78.769 320.703,101.275 343.209,123.78 376.967,123.78 376.967,78.769 "/> <rect x="135.033" y="78.769" style="fill:#A7CBCF;" width="208.176" height="45.011"/> <path style="fill:#FFBE35;" d="M38.687,305.703l-22.505,38.676l22.505,38.687c21.369,0,38.687-17.318,38.687-38.687 C77.374,323.021,60.056,305.703,38.687,305.703z"/> <path style="fill:#FFDB8A;" d="M38.687,305.703v77.363C17.318,383.066,0,365.748,0,344.379C0,323.021,17.318,305.703,38.687,305.703 z"/> <polygon style="fill:#FF0F47;" points="149.808,434.637 149.808,512 111.121,512 93.544,473.319 111.121,434.637 "/> <rect x="72.445" y="434.637" style="fill:#FF6176;" width="38.676" height="77.363"/> <path style="fill:#50D1DD;" d="M183.555,305.703l-22.505,38.676l22.505,38.687c21.369,0,38.687-17.318,38.687-38.687 C222.242,323.021,204.924,305.703,183.555,305.703z"/> <path style="fill:#A0F6FA;" d="M183.555,305.703v77.363c-21.369,0-38.687-17.318-38.687-38.687 C144.868,323.021,162.186,305.703,183.555,305.703z"/> <path style="fill:#FFBE35;" d="M328.434,305.703l-22.505,38.676l22.505,38.687c21.369,0,38.687-17.318,38.687-38.687 C367.121,323.021,349.803,305.703,328.434,305.703z"/> <path style="fill:#FFDB8A;" d="M328.434,305.703v77.363c-21.369,0-38.687-17.318-38.687-38.687 C289.747,323.021,307.065,305.703,328.434,305.703z"/> <path style="fill:#50D1DD;" d="M473.313,305.703l-22.505,38.676l22.505,38.687c21.369,0,38.687-17.318,38.687-38.687 C512,323.021,494.682,305.703,473.313,305.703z"/> <path style="fill:#A0F6FA;" d="M473.313,305.703v77.363c-21.369,0-38.687-17.318-38.687-38.687 C434.626,323.021,451.944,305.703,473.313,305.703z"/> <polygon style="fill:#FF9269;" points="294.681,434.637 294.681,512 256,512 238.418,473.319 256,434.637 "/> <rect x="217.313" y="434.637" style="fill:#FFCD9C;" width="38.681" height="77.363"/> <polygon style="fill:#FF0F47;" points="439.56,434.637 439.56,512 400.879,512 383.297,473.319 400.879,434.637 "/> <rect x="362.192" y="434.637" style="fill:#FF6176;" width="38.681" height="77.363"/> </g>
</svg>